<svg xmlns="http://www.w3.org/2000/svg" viewBox="0 0 1200 720" role="img" aria-label="Cerstva pizza v krabici">
  <defs>
    <linearGradient id="bg" x1="0" x2="1" y1="0" y2="1">
      <stop offset="0" stop-color="#fff7e2"/>
      <stop offset="0.52" stop-color="#f0d5a5"/>
      <stop offset="1" stop-color="#24251f"/>
    </linearGradient>
    <linearGradient id="box" x1="0" x2="1">
      <stop offset="0" stop-color="#e9c992"/>
      <stop offset="1" stop-color="#c99b5c"/>
    </linearGradient>
    <filter id="shadow" x="-20%" y="-20%" width="140%" height="140%">
      <feDropShadow dx="0" dy="22" stdDeviation="28" flood-color="#20150c" flood-opacity=".32"/>
    </filter>
  </defs>
  <rect width="1200" height="720" fill="url(#bg)"/>
  <path d="M0 500c155-70 293-92 456-76 203 20 323 112 514 104 92-4 159-28 230-59v251H0Z" fill="#151813" opacity=".88"/>
  <g filter="url(#shadow)">
    <path d="M168 276h864l-94 330H258Z" fill="url(#box)"/>
    <path d="M168 276 304 120h600l128 156Z" fill="#efcf99"/>
    <path d="M304 120 258 606" fill="none" stroke="#b78345" stroke-width="8" opacity=".45"/>
    <path d="M904 120 938 606" fill="none" stroke="#b78345" stroke-width="8" opacity=".45"/>
  </g>
  <g transform="translate(600 385)" filter="url(#shadow)">
    <circle r="220" fill="#f2bc4d"/>
    <circle r="196" fill="#ffcf62"/>
    <path d="M-184-4c65-110 215-149 321-63 58 47 84 116 71 185-63 66-164 100-264 65-91-32-145-102-128-183Z" fill="#f07a3f"/>
    <g fill="#b72f2b">
      <circle cx="-88" cy="-84" r="28"/>
      <circle cx="55" cy="-102" r="25"/>
      <circle cx="108" cy="28" r="31"/>
      <circle cx="-36" cy="76" r="24"/>
      <circle cx="-139" cy="38" r="23"/>
    </g>
    <g fill="#27864f">
      <ellipse cx="-10" cy="-28" rx="14" ry="35" transform="rotate(35)"/>
      <ellipse cx="88" cy="-46" rx="12" ry="30" transform="rotate(-24)"/>
      <ellipse cx="-95" cy="40" rx="12" ry="30" transform="rotate(-42)"/>
    </g>
    <g fill="#fff0aa" opacity=".92">
      <path d="M-150-43c46 18 83 17 124-4"/>
      <path d="M13 23c46 18 83 17 124-4"/>
      <path d="M-49 122c31-3 61-13 91-31"/>
    </g>
  </g>
  <rect x="44" y="44" width="180" height="42" rx="21" fill="#34d186"/>
  <text x="72" y="72" font-family="Arial, sans-serif" font-size="23" font-weight="700" fill="#052b18">Pizza Jasterka</text>
</svg>
