<svg xmlns="http://www.w3.org/2000/svg" viewBox="0 0 512 512">
  <rect width="512" height="512" rx="112" fill="#34d186"/>
  <circle cx="256" cy="256" r="166" fill="#fff6df"/>
  <path d="M142 270c18-88 86-126 184-115 24 3 42 22 45 46 11 98-27 166-115 184-67 14-128-48-114-115Z" fill="#ff7547"/>
  <path d="M160 258c17-62 67-88 140-80 21 2 38 19 40 40 8 73-18 123-80 140-54 14-114-46-100-100Z" fill="#ffd166"/>
  <circle cx="223" cy="235" r="18" fill="#c7362c"/>
  <circle cx="285" cy="276" r="18" fill="#c7362c"/>
  <circle cx="245" cy="312" r="14" fill="#2f9e62"/>
  <path d="M327 157l42-42 28 28-42 42c-8-12-16-20-28-28Z" fill="#08351f"/>
  <path d="M178 398c48 20 113 6 163-44 32-32 51-70 55-107 10 48-9 103-54 147-49 49-114 67-164 44-18-8-24-32 0-40Z" fill="#08351f" opacity=".16"/>
</svg>
